<svg width="400" height="400" viewBox="0 0 400 400" fill="none" xmlns="http://www.w3.org/2000/svg">
<path d="M188 72L148 112L139 123L129.5 131.5L143 141L150 149L186 181L193 183V72H188Z" fill="#5CDF94"/>
<path d="M293 202H288.86L272.302 219L238.151 245L207.105 274L204 280V327L209.5 331L248 308L273.337 276L291 251L300 225L293 202Z" fill="#A1D69C"/>
<path d="M271.5 141H267.5L257.5 148L207.5 201L205.5 206L198 250.5L207 261L230.5 237L268.5 207L286.5 194.5L288.5 181.5L290 162L271.5 141Z" fill="#A0F3C4"/>
<path d="M205 72.2793V183.279H209L264.5 143.279L267 130.779L261.5 122.5L230 91.2793L209 72.2793H205Z" fill="#B3F2A8"/>
<path d="M104 202L98 230L113 258L123 275L153 305L187 327H191V281V275L160 247L124.5 215L108 202H104Z" fill="#C3F8CF"/>
<path d="M127 142L112 173V184L115 191L130 208L156.5 234.5L189 258H193L196.5 200.5L136 151L131 142H127Z" fill="#C3F8CF"/>
<path fill-rule="evenodd" clip-rule="evenodd" d="M199.5 347.5L195 345.5L166 329.5L142.5 313.5L123 293.5L108.5 275.5L98 257L93 238.5L91 215.5L93 194L98 176.5L104.5 154.5L118.5 131L148 94.5L172 70.5L185.5 60L199.5 50V347.5ZM170.5 93L185.5 78.5L191 73.5V152.5V183L182 175.5L172 166.5L157.5 154L149 146L143.5 138.5L140.5 133L139 128.5L145.5 120L157 106.5L170.5 93ZM128 142.5L129.5 146L132 150L135.5 154.5L139 158L161.5 178L188 202L190 205L191 209.5V253V257L186.5 252.5L162 231.5L132 206.5L124 198.5L118.5 192L116.5 189.5L114.5 186.5L112.5 182L112 180L112.5 176L115 170L118.5 162.5L125 148.5L128 142.5ZM107 203.5L112 210.5L119 217.5L127 224L144 237L161 251L178 267L188 277.5L190 280L191 282V323.5V327L184 323.5L171 315.5L156.5 305L149.5 299L142.5 293L136 286.5L130.5 280.5L127 275.5L121.5 267.5L116.5 258L112 248L108.5 237L107 226.5V215.5V210.5V203.5Z" fill="#133B2D"/>
<path fill-rule="evenodd" clip-rule="evenodd" d="M199.5 347.5L203.5 345.5L232.5 329.5L256 313.5L275.5 293.5L290 275.5L300.5 258L305.5 238.5L307.5 215.5L305.5 194L300.5 176.5L294 154.5L280 131L250.5 94.5L223 68L208.5 57L199.5 50V347.5ZM228 93L213 78.5L207.5 73.5V152.5V183L216.5 175.5L226.5 166.5L241 154L249.5 146L255 138.5L258 133L259.5 128.5L253 120L241.5 106.5L228 93ZM270.5 142.5L269 146L266.5 150L263 154.5L259.5 158L237 178L210.5 202L208.5 205L207.5 209.5V253V257L212 252.5L236.5 231.5L266.5 206.5L274.5 198.5L280 192L282 189.5L284 186.5L286 182L286.5 180L286 176L283.5 170L280 162.5L273.5 148.5L270.5 142.5ZM291.5 203.5L286.5 210.5L279.5 217.5L271.5 224L254.5 237L237.5 251L220.5 267L210.5 277.5L208.5 280L207.5 282V323.5V327L214.5 323.5L227.5 315.5L242 305L249 299L256 293L262.5 286.5L268 280.5L271.5 275.5L277 267.5L282 258L286.5 248L290 237L291.5 226.5V215.5V210.5V203.5Z" fill="#133B2D"/>
<rect x="197" y="53" width="6" height="292" fill="#133B2D"/>
<rect x="199" y="51" width="1" height="42" fill="#133B2D"/>
<rect x="199" y="294" width="1" height="53" fill="#133B2D"/>
</svg>
